<?xml version="1.0" standalone="no"?>
<!DOCTYPE svg PUBLIC "-//W3C//DTD SVG 20010904//EN"
 "http://www.w3.org/TR/2001/REC-SVG-20010904/DTD/svg10.dtd">
<svg version="1.0" xmlns="http://www.w3.org/2000/svg"
 width="1016.000000pt" height="1016.000000pt" viewBox="0 0 1016.000000 1016.000000"
 preserveAspectRatio="xMidYMid meet">
<metadata>
Created by potrace 1.11, written by Peter Selinger 2001-2013
</metadata>
<g transform="translate(0.000000,1016.000000) scale(0.100000,-0.100000)"
fill="#000000" stroke="none">
<path d="M703 7117 c2 -1673 6 -3064 10 -3092 3 -27 8 -75 11 -105 3 -30 8
-71 11 -90 2 -19 7 -55 11 -80 3 -25 14 -90 24 -145 11 -55 21 -112 24 -128 3
-15 7 -35 10 -45 3 -9 7 -28 10 -42 3 -14 9 -40 15 -58 5 -18 10 -33 9 -35 0
-1 5 -22 12 -47 7 -25 13 -52 15 -60 14 -69 120 -367 188 -525 43 -103 157
-337 187 -385 5 -8 39 -67 76 -130 70 -121 212 -333 226 -338 4 -2 8 -8 8 -14
0 -5 19 -33 43 -62 23 -29 56 -70 72 -91 17 -21 35 -43 40 -50 6 -6 30 -35 55
-65 100 -122 339 -361 469 -469 24 -20 51 -43 60 -52 30 -29 241 -189 250
-189 5 0 11 -4 13 -8 2 -4 44 -35 93 -67 50 -33 92 -63 93 -67 2 -5 8 -8 13
-8 5 0 32 -15 61 -34 49 -30 84 -51 223 -126 92 -50 100 -54 105 -56 3 0 41
-18 85 -38 136 -64 157 -73 279 -121 174 -68 453 -155 581 -180 11 -3 40 -9
65 -15 25 -5 57 -12 73 -15 15 -3 37 -7 50 -10 12 -2 63 -11 112 -19 82 -14
126 -20 240 -32 22 -2 65 -7 95 -10 78 -9 608 -10 710 -1 82 6 111 10 210 22
25 4 62 8 82 10 20 2 45 6 55 9 24 8 101 19 136 20 15 1 27 4 27 7 0 3 6 6 13
6 6 0 23 3 37 6 14 4 36 9 50 11 14 3 61 15 105 27 44 11 87 21 95 23 8 2 42
11 75 21 33 11 62 19 65 20 10 2 175 57 195 65 11 4 49 19 85 34 36 14 79 31
95 37 17 7 32 13 35 14 3 0 15 6 26 13 12 6 24 8 28 5 3 -3 6 -1 6 5 0 7 6 12
13 12 6 0 58 23 114 50 56 28 106 50 112 50 5 0 11 3 13 8 2 4 26 19 53 33
142 74 425 251 433 271 2 4 8 8 13 8 6 0 15 5 22 10 7 6 35 27 63 48 78 57
220 171 270 217 6 5 42 38 80 71 101 90 252 245 368 378 28 32 56 64 61 70 6
6 23 29 39 51 17 22 38 49 48 60 10 11 47 61 83 110 35 50 69 95 75 102 5 7
10 15 10 18 0 3 15 27 33 53 45 64 122 192 159 262 7 14 15 27 18 30 22 19
249 514 265 580 6 24 35 103 45 125 5 11 21 61 35 110 15 50 29 97 32 105 4 8
6 18 5 22 -1 4 3 19 8 33 5 14 12 36 14 48 3 12 8 33 11 47 4 14 11 43 15 65
5 22 12 50 15 63 10 42 13 60 19 93 3 19 8 45 10 59 3 14 7 42 10 63 3 20 8
52 11 70 7 48 14 106 20 162 3 28 8 77 12 110 4 33 8 1424 10 3092 l3 3032
-4385 0 -4385 0 3 -3042z m6452 2433 c-27 -11 -54 -20 -58 -20 -5 0 -23 -6
-40 -14 -18 -7 -61 -24 -97 -36 -36 -12 -99 -35 -140 -50 -86 -33 -390 -141
-405 -144 -5 -2 -17 -6 -25 -9 -26 -11 -233 -85 -290 -104 -30 -10 -58 -22
-61 -26 -3 -5 -10 -8 -15 -7 -8 1 -36 -7 -54 -15 -74 -32 -324 -105 -410 -119
-19 -3 -46 -8 -60 -11 -13 -2 -42 -7 -65 -10 -22 -4 -51 -8 -65 -10 -72 -11
-300 -23 -300 -15 0 3 -46 5 -103 6 -265 2 -507 58 -881 205 -55 21 -103 39
-107 39 -3 0 -23 7 -43 15 -20 8 -39 16 -43 16 -5 0 -19 7 -33 14 -14 8 -56
25 -95 39 -38 13 -124 45 -190 71 -66 26 -142 55 -170 65 -27 10 -79 30 -115
43 -36 14 -103 40 -150 57 -47 17 -87 33 -89 36 -2 2 931 4 2075 4 2073 -1
2079 -1 2029 -20z m-5710 -161 c17 -6 35 -13 40 -15 6 -1 24 -7 40 -14 17 -6
30 -10 30 -9 0 1 19 -8 43 -20 23 -12 42 -19 42 -16 0 3 17 -3 38 -14 20 -10
39 -19 42 -19 7 -1 30 -9 160 -60 63 -24 120 -45 125 -46 6 -2 23 -8 38 -14
16 -7 30 -12 31 -12 2 0 21 -8 42 -17 22 -10 44 -18 49 -19 10 -1 53 -17 90
-33 11 -5 45 -18 75 -30 30 -11 69 -26 85 -32 17 -7 32 -13 35 -14 3 -1 12 -4
20 -7 24 -9 55 -19 60 -20 3 0 14 -5 25 -11 11 -6 47 -20 80 -32 95 -34 437
-165 472 -181 17 -8 34 -14 37 -14 5 0 41 -13 201 -75 11 -5 29 -10 39 -12 11
-2 26 -9 34 -16 8 -6 20 -12 26 -12 6 -1 20 -5 31 -10 24 -10 155 -60 290
-110 55 -21 114 -43 130 -50 44 -19 129 -50 137 -50 3 0 10 -3 14 -7 4 -5 16
-8 26 -8 10 0 18 -5 18 -11 0 -5 4 -8 8 -5 4 2 35 -4 67 -15 33 -11 71 -22 85
-24 14 -3 41 -9 60 -15 40 -12 200 -47 245 -54 17 -2 30 -5 30 -6 0 -1 23 -3
50 -6 28 -3 61 -7 75 -10 62 -12 210 -19 390 -18 208 1 342 10 440 29 19 4 46
9 60 11 14 2 36 5 50 8 14 2 43 7 65 11 97 16 318 80 480 140 55 20 105 38
110 39 6 1 42 14 80 28 39 14 111 40 160 58 50 17 104 37 120 43 17 7 32 12
35 13 3 0 12 3 20 7 8 3 80 28 160 57 80 28 164 58 187 66 23 9 44 14 45 13 2
-1 14 4 28 11 14 8 30 15 35 16 8 2 330 115 395 140 8 3 16 5 18 4 1 0 16 7
32 15 17 9 30 14 30 11 0 -2 35 9 78 26 42 16 84 31 92 34 17 4 336 118 390
139 49 19 74 28 80 29 4 1 90 31 150 54 8 3 24 7 34 9 11 2 24 7 30 12 6 4 67
27 136 51 69 24 136 47 150 53 14 6 30 11 35 13 6 2 20 6 32 10 17 5 22 2 22
-12 0 -15 1 -288 0 -329 0 -5 2 -27 3 -47 2 -21 0 -38 -4 -38 -3 0 -3 -13 2
-29 l8 -28 -172 -68 c-94 -38 -177 -68 -183 -68 -7 0 -13 -4 -13 -9 0 -4 -4
-8 -9 -8 -9 0 -324 -121 -366 -140 -11 -5 -63 -25 -115 -45 -52 -20 -108 -42
-125 -49 -16 -8 -91 -38 -165 -66 -74 -29 -148 -58 -165 -65 -16 -7 -61 -25
-100 -40 -38 -15 -79 -31 -90 -36 -28 -12 -348 -139 -360 -143 -19 -6 -50 -18
-82 -32 -17 -8 -35 -14 -41 -14 -5 0 -34 -11 -63 -24 -48 -21 -84 -36 -99 -41
-14 -5 -67 -26 -85 -35 -19 -8 -64 -23 -75 -25 -3 0 -10 -3 -15 -7 -6 -4 -65
-28 -130 -53 -206 -81 -384 -151 -570 -225 -99 -40 -184 -73 -190 -74 -5 -1
-27 -10 -49 -19 -21 -9 -40 -17 -41 -17 -1 0 -20 -8 -41 -17 -22 -9 -44 -18
-50 -19 -6 -1 -29 -9 -50 -19 -22 -9 -53 -23 -70 -30 -67 -29 -192 -57 -256
-59 -37 0 -68 -5 -68 -9 0 -5 -5 -5 -11 -2 -6 4 -36 9 -67 11 -79 6 -142 25
-328 100 -88 35 -166 64 -172 64 -7 0 -12 4 -12 8 0 5 -6 9 -12 9 -11 1 -1596
633 -1663 663 -11 5 -69 29 -130 53 -60 24 -119 47 -130 52 -11 5 -22 9 -25
10 -3 1 -18 7 -33 13 -15 7 -39 15 -52 18 -14 3 -25 10 -25 15 0 5 -3 8 -7 7
-8 -1 -28 5 -68 22 -11 5 -41 18 -67 29 -27 11 -48 18 -48 15 0 -3 -12 1 -27
9 -29 15 -86 39 -90 38 -2 0 -24 9 -50 20 -80 35 -98 42 -105 44 -5 2 -10 4
-13 5 -3 1 -8 3 -12 5 -13 3 -67 25 -88 35 -11 5 -45 19 -75 30 -30 11 -64 24
-75 29 -11 5 -36 16 -57 25 -20 9 -38 16 -41 16 -2 0 -22 8 -43 17 -22 9 -44
17 -49 19 -6 1 -31 11 -55 21 -25 11 -65 28 -90 38 l-45 18 3 277 3 277 62
-22 c34 -13 76 -29 92 -36z m-50 -1333 c17 -8 320 -129 675 -271 355 -141 665
-266 690 -277 25 -11 54 -24 65 -28 53 -21 132 -52 150 -60 11 -4 61 -24 110
-43 50 -20 104 -41 120 -48 17 -7 32 -13 35 -14 3 -1 18 -7 33 -13 16 -7 30
-12 33 -12 2 0 23 -9 47 -19 23 -11 141 -58 262 -106 121 -48 243 -97 270
-109 28 -13 68 -29 90 -36 22 -7 45 -16 50 -20 6 -3 33 -15 60 -25 52 -18 86
-32 147 -59 20 -9 38 -16 41 -16 2 0 22 -8 43 -17 22 -9 44 -18 50 -19 6 -1
27 -9 45 -17 84 -38 136 -59 169 -67 19 -5 68 -18 109 -29 41 -11 78 -18 83
-15 4 3 8 1 8 -3 0 -5 10 -10 23 -10 12 -1 47 -5 77 -9 66 -8 296 -8 364 0 42
6 105 18 209 41 9 2 22 7 27 10 5 3 20 8 32 10 31 6 159 55 266 101 18 8 39
14 47 14 8 0 15 5 15 11 0 5 4 8 9 4 5 -3 12 -1 16 5 3 5 17 10 31 10 13 0 24
5 24 10 0 6 7 10 16 10 8 0 46 13 85 30 38 16 77 30 87 32 9 2 19 6 22 9 3 3
73 31 155 63 83 32 164 64 180 71 17 6 113 45 215 85 102 39 194 76 205 81 11
5 119 47 240 94 121 47 245 96 275 109 30 13 69 28 85 34 17 6 44 17 60 23 17
7 32 13 35 14 11 4 66 26 85 34 11 5 81 33 155 61 74 29 149 58 165 65 17 7
100 40 185 73 85 34 169 66 185 73 17 7 32 13 35 14 6 2 51 20 105 41 22 9 49
20 60 24 11 4 73 29 138 56 65 26 125 47 133 47 8 0 14 4 14 9 0 17 40 8 41
-9 3 -48 -1 -186 -6 -193 -3 -5 -2 -11 2 -13 7 -5 9 -111 3 -192 -1 -16 -1
-34 0 -40 5 -27 1 -135 -5 -146 -5 -7 -4 -10 1 -6 6 3 8 -8 6 -26 l-4 -32
-256 -89 c-142 -48 -266 -92 -277 -97 -18 -8 -386 -137 -410 -143 -5 -2 -17
-6 -25 -9 -18 -8 -289 -104 -345 -122 -22 -7 -105 -36 -185 -65 -80 -28 -153
-53 -162 -55 -9 -2 -25 -8 -35 -13 -10 -5 -65 -26 -123 -45 -58 -20 -163 -57
-235 -82 -71 -25 -164 -58 -205 -72 -251 -84 -453 -161 -540 -205 -30 -16 -60
-28 -67 -28 -7 0 -13 -3 -13 -8 0 -4 -13 -13 -30 -20 -16 -7 -45 -24 -65 -37
-19 -14 -35 -21 -35 -17 0 4 -4 2 -8 -4 -4 -5 -25 -21 -47 -34 -22 -13 -44
-28 -50 -32 -5 -5 -48 -37 -95 -72 -47 -35 -102 -80 -124 -100 -21 -20 -40
-36 -42 -36 -4 0 -113 -111 -174 -177 -54 -58 -173 -215 -224 -296 l-37 -58
-56 83 c-30 46 -90 126 -131 178 -102 127 -347 370 -373 370 -5 0 -9 5 -9 10
0 6 -5 10 -10 10 -6 0 -21 11 -34 25 -13 14 -28 25 -34 25 -6 0 -17 6 -25 14
-16 16 -131 92 -192 126 -146 82 -244 125 -475 206 -69 25 -132 47 -140 51 -8
3 -19 7 -25 8 -35 9 -172 60 -182 68 -7 5 -13 7 -13 4 0 -3 -30 5 -67 19 -38
14 -72 27 -78 28 -5 2 -19 6 -30 10 -11 5 -31 12 -45 16 -14 4 -34 11 -45 16
-11 4 -24 8 -30 10 -5 1 -107 37 -225 79 -118 42 -249 88 -290 102 -41 13 -84
28 -95 33 -21 9 -216 77 -320 112 -33 11 -69 24 -80 28 -35 14 -169 62 -185
65 -8 2 -60 20 -115 40 -156 57 -328 116 -353 122 -12 3 -25 9 -28 14 -3 5
-13 9 -23 9 -10 0 -31 6 -46 14 l-26 14 0 273 c0 151 0 304 0 341 l1 67 38
-15 c20 -8 51 -21 67 -28z m7486 -1438 c1 -13 0 -48 0 -78 -1 -30 -1 -61 -1
-67 -1 -23 -1 -303 0 -320 2 -183 0 -246 -7 -253 -8 -8 -168 -62 -178 -61 -3
1 -19 -6 -35 -14 -16 -8 -31 -15 -32 -15 -4 2 -9 0 -163 -50 -71 -23 -137 -44
-145 -48 -8 -3 -19 -7 -25 -7 -5 -1 -17 -5 -25 -8 -18 -7 -111 -38 -125 -41
-5 -2 -17 -6 -25 -9 -13 -5 -295 -98 -310 -102 -3 -1 -12 -4 -20 -7 -39 -15
-147 -49 -165 -53 -18 -4 -32 -9 -90 -31 -11 -4 -25 -8 -31 -9 -6 -2 -47 -15
-90 -30 -43 -15 -83 -28 -89 -30 -5 -1 -23 -8 -40 -14 -16 -7 -39 -15 -50 -17
-12 -2 -61 -18 -110 -35 -50 -17 -94 -32 -100 -33 -5 -1 -27 -10 -49 -19 -21
-9 -41 -17 -43 -17 -22 0 -256 -134 -289 -165 -6 -5 -27 -21 -47 -35 -20 -14
-37 -28 -37 -32 0 -5 -4 -8 -9 -8 -25 0 -281 -288 -281 -316 0 -4 -7 -15 -15
-23 -8 -9 -38 -64 -68 -121 -74 -144 -135 -324 -151 -450 -3 -25 -8 -58 -11
-75 -13 -71 -14 -207 -14 -1726 l-1 -1596 -32 -8 c-18 -4 -37 -9 -43 -10 -21
-6 -222 -44 -260 -50 -22 -3 -51 -7 -65 -10 -20 -3 -126 -15 -150 -17 -3 0 -9
0 -15 1 -7 1 -9 623 -8 1848 2 1744 3 1924 17 1998 4 17 9 46 12 65 8 48 42
186 60 239 22 65 77 205 84 211 3 3 23 39 44 80 45 86 121 203 154 236 6 7 12
15 12 18 0 6 2 9 86 97 151 160 295 267 488 362 55 26 156 68 181 73 6 1 62
21 125 44 63 23 149 53 190 67 41 14 86 30 100 36 14 5 30 11 35 13 6 1 51 17
100 34 50 18 95 33 100 35 6 1 21 6 35 12 14 5 75 27 135 47 61 21 119 41 130
46 11 5 38 14 60 21 22 7 45 16 50 20 6 3 24 10 40 14 17 5 35 9 40 11 20 5
131 45 150 54 19 8 58 21 80 26 6 1 27 9 48 18 20 9 37 13 37 9 0 -5 4 -3 8 2
4 6 75 33 157 62 83 28 215 74 295 103 80 28 152 53 160 55 8 2 16 4 18 5 1 2
5 3 10 5 4 1 15 5 25 9 22 10 160 55 170 56 4 0 7 -10 8 -22z m-7528 -5 c15
-3 27 -9 27 -13 0 -3 6 -7 13 -7 10 -1 209 -68 267 -90 49 -19 207 -75 220
-78 8 -2 38 -12 65 -23 28 -11 53 -20 57 -21 4 -1 13 -4 20 -6 7 -3 92 -32
188 -66 458 -160 576 -201 725 -254 88 -31 178 -63 200 -70 62 -21 407 -142
440 -155 17 -6 37 -13 47 -15 28 -6 190 -86 258 -129 188 -116 353 -268 488
-451 63 -85 149 -242 192 -350 18 -44 36 -89 41 -100 10 -26 47 -152 53 -185
2 -14 7 -36 10 -50 3 -14 8 -41 11 -60 4 -19 9 -51 12 -70 4 -19 8 -885 10
-1923 l3 -1888 -47 5 c-81 8 -147 17 -173 22 -14 3 -38 7 -55 10 -24 4 -113
22 -195 39 -8 1 -33 8 -55 14 l-40 11 -1 1597 c0 879 -3 1630 -7 1668 -3 39
-11 95 -17 125 -6 30 -13 66 -16 80 -7 38 -54 190 -70 230 -59 141 -148 294
-232 400 -90 113 -254 258 -381 337 -47 29 -239 123 -251 123 -6 0 -18 4 -28
10 -9 5 -89 32 -177 60 -88 29 -169 56 -180 60 -11 5 -31 12 -45 15 -14 3 -41
12 -60 19 -19 7 -53 19 -75 25 -22 7 -49 16 -60 20 -31 13 -148 51 -169 56
-10 2 -46 14 -80 26 -33 11 -68 23 -76 24 -8 2 -53 17 -100 33 -47 17 -197 67
-335 111 -137 45 -257 85 -265 88 -8 3 -19 7 -25 8 -5 2 -46 15 -90 30 -44 15
-86 28 -92 28 -13 0 -14 48 -14 582 0 69 0 134 1 146 0 16 4 19 18 14 9 -3 29
-9 45 -12z m7529 -1586 c-1 -46 -2 -88 -3 -93 -1 -5 0 -13 1 -19 5 -26 1 -135
-5 -146 -5 -7 -4 -10 2 -6 6 4 7 -13 3 -44 -4 -27 -4 -52 -1 -54 6 -3 6 -118
1 -190 -1 -16 -1 -33 0 -37 4 -19 2 -99 -2 -104 -3 -3 -18 -7 -33 -10 -16 -3
-35 -9 -44 -14 -9 -4 -41 -15 -71 -23 -30 -9 -102 -30 -160 -47 -58 -18 -109
-33 -115 -34 -5 -2 -17 -6 -25 -9 -8 -3 -55 -18 -105 -32 -49 -15 -111 -33
-137 -41 -27 -8 -69 -20 -95 -28 -27 -7 -75 -23 -108 -35 -33 -12 -64 -23 -70
-24 -22 -6 -119 -59 -168 -91 -62 -41 -184 -157 -217 -206 -14 -19 -30 -41
-36 -47 -12 -13 -98 -184 -128 -256 -10 -24 -12 -36 -5 -31 8 5 9 3 3 -7 -5
-8 -9 -17 -10 -21 -1 -5 -2 -9 -4 -10 -3 -5 -9 -39 -19 -103 -5 -33 -9 -485
-9 -1005 0 -578 -4 -946 -9 -947 -6 -2 -37 -24 -71 -48 -34 -25 -64 -45 -67
-45 -3 0 -11 -5 -18 -10 -18 -16 -115 -78 -167 -107 -132 -74 -230 -124 -237
-120 -10 6 -8 2882 2 2962 4 33 11 68 17 78 5 9 6 22 3 27 -3 5 -2 11 3 14 4
2 14 28 22 55 7 28 17 51 20 51 4 0 12 18 19 40 6 22 15 40 20 40 4 0 13 12
20 27 35 76 169 203 278 263 40 22 223 93 253 98 8 1 30 9 93 31 31 11 57 18
57 15 0 -3 6 -2 13 3 6 4 14 8 17 9 3 0 12 4 20 7 8 3 134 45 280 93 146 47
308 101 360 118 52 18 124 43 160 55 36 12 75 24 87 27 12 2 35 9 50 16 16 6
30 12 33 13 3 0 66 20 140 44 163 52 154 49 159 45 2 -2 3 -41 3 -87z m-7517
63 c50 -15 309 -101 330 -110 21 -9 148 -50 168 -54 7 -2 19 -6 27 -9 8 -3
222 -74 475 -157 546 -180 572 -189 654 -238 90 -52 202 -167 261 -269 28 -46
50 -89 50 -96 0 -7 4 -17 8 -22 8 -10 31 -80 38 -120 2 -11 8 -41 12 -67 9
-45 14 -2958 6 -2958 -5 0 -164 84 -204 108 -19 12 -51 30 -70 41 -19 11 -82
51 -140 90 l-105 70 -1 963 c-1 925 -3 1014 -26 1103 -26 101 -84 245 -99 245
-5 0 -9 7 -9 16 0 18 -91 143 -141 194 -97 99 -228 185 -343 227 -47 17 -260
83 -386 119 -47 14 -89 26 -95 28 -5 2 -13 4 -17 5 -4 1 -20 6 -35 11 -174 53
-375 114 -400 121 -38 11 -34 -35 -34 374 0 450 -2 408 24 400 12 -3 36 -10
52 -15z m117 -1575 c46 -14 128 -40 183 -57 55 -17 107 -32 115 -33 8 -1 35
-9 60 -18 25 -8 65 -21 90 -28 57 -16 51 -14 80 -26 53 -22 112 -103 124 -169
3 -16 5 -274 5 -574 0 -300 0 -557 0 -572 1 -16 -2 -28 -5 -28 -9 0 -51 49
-72 83 -9 15 -20 27 -24 27 -4 0 -8 4 -8 10 0 5 -16 31 -36 57 -19 27 -41 55
-47 64 -20 26 -74 113 -148 239 -72 121 -190 365 -242 500 -47 121 -59 155
-57 155 1 0 -7 23 -18 50 -16 42 -53 174 -82 290 -1 6 -6 20 -11 33 -11 28 -9
28 93 -3z m7293 -17 c-4 -18 -14 -58 -23 -88 -9 -30 -17 -58 -18 -62 -1 -5 -2
-9 -4 -10 -1 -2 -3 -10 -5 -18 -6 -30 -38 -135 -46 -150 -10 -20 -59 -162 -60
-175 0 -5 -4 -14 -9 -20 -4 -5 -24 -50 -45 -100 -78 -185 -209 -423 -335 -610
-8 -12 -27 -39 -41 -61 -15 -21 -47 -66 -73 -98 -25 -33 -46 -64 -46 -69 0 -6
-3 -7 -7 -4 -9 9 -8 1103 1 1152 13 68 48 120 107 158 18 11 417 137 484 152
6 1 17 5 25 8 92 35 103 34 95 -5z"/>
</g>
</svg>
